<?xml version="1.0" standalone="no"?>
<!DOCTYPE svg PUBLIC "-//W3C//DTD SVG 20010904//EN"
 "http://www.w3.org/TR/2001/REC-SVG-20010904/DTD/svg10.dtd">
<svg version="1.0" xmlns="http://www.w3.org/2000/svg"
 width="632.000000pt" height="632.000000pt" viewBox="0 0 632.000000 632.000000"
 preserveAspectRatio="xMidYMid meet">
<metadata>
Created by potrace 1.11, written by Peter Selinger 2001-2013
</metadata>
<g transform="translate(0.000000,632.000000) scale(0.100000,-0.100000)"
fill="#000000" stroke="none">
<path d="M3116 5899 c-93 -145 -145 -227 -316 -499 -95 -151 -189 -300 -208
-330 -19 -30 -45 -71 -57 -90 -74 -115 -272 -427 -280 -441 -16 -28 -147 -235
-187 -297 -20 -31 -51 -79 -68 -107 -49 -80 -216 -345 -228 -364 -32 -46 -212
-333 -212 -337 0 -3 -5 -10 -11 -17 -21 -24 -109 -167 -109 -177 0 -5 -3 -10
-7 -10 -5 0 -21 -23 -38 -51 -16 -28 -37 -62 -45 -75 -8 -13 -55 -88 -105
-166 -82 -131 -119 -188 -145 -228 -6 -8 -25 -39 -43 -67 -17 -29 -61 -99 -97
-155 -36 -57 -113 -179 -172 -273 -59 -93 -112 -177 -118 -185 -5 -8 -71 -112
-144 -230 -74 -118 -138 -219 -143 -225 -5 -5 -49 -75 -98 -155 -49 -80 -93
-149 -98 -155 -25 -33 -185 -295 -179 -295 9 -1 6249 -1 6284 0 l27 0 -57 90
c-31 49 -62 98 -67 109 -6 10 -24 38 -40 62 -15 24 -38 60 -51 79 -12 19 -51
81 -88 138 -36 56 -66 105 -66 108 0 3 -10 20 -23 37 -12 18 -27 41 -34 52 -7
11 -47 75 -90 142 -43 68 -82 132 -88 143 -5 11 -13 20 -17 20 -5 0 -8 4 -8
10 0 5 -25 49 -56 97 -31 48 -66 104 -78 123 -13 19 -36 55 -51 79 -16 24 -34
51 -40 62 -5 10 -68 110 -140 224 -71 113 -149 236 -172 273 -23 37 -46 72
-50 78 -9 11 -12 17 -75 119 -23 39 -45 72 -48 75 -10 9 -80 128 -80 136 0 4
8 16 18 27 16 18 16 19 -3 17 -43 -5 -52 2 -100 81 -76 122 -73 118 -180 286
-55 86 -102 162 -104 167 -2 6 -7 13 -10 16 -6 5 -203 316 -225 355 -6 11 -13
22 -16 25 -3 3 -50 77 -105 165 -54 88 -108 174 -120 190 -11 17 -25 39 -32
50 -24 39 -268 425 -434 685 -93 146 -174 274 -179 285 -6 11 -39 65 -75 120
-35 55 -83 132 -107 170 -23 39 -45 72 -49 75 -3 3 -8 11 -11 19 -2 9 -23 -14
-52 -60z m81 -136 c15 -27 49 -81 75 -120 27 -40 48 -77 48 -82 0 -5 3 -11 8
-13 10 -4 62 -85 62 -97 0 -5 4 -11 8 -13 7 -3 26 -33 82 -127 9 -14 36 -57
61 -96 56 -85 408 -642 423 -670 6 -11 32 -51 57 -90 77 -117 329 -517 329
-521 0 -3 5 -10 10 -17 6 -7 51 -77 101 -157 50 -80 101 -161 114 -180 97
-151 135 -211 135 -215 0 -3 14 -24 30 -47 17 -23 26 -44 21 -47 -5 -4 -45 -6
-89 -5 -90 2 -69 14 -235 -139 -49 -45 -99 -90 -111 -102 -70 -63 -203 -184
-231 -210 -17 -16 -70 -64 -116 -106 -99 -91 -145 -133 -217 -200 -29 -27 -55
-49 -57 -49 -3 0 -6 181 -7 403 l-3 402 -130 0 -130 0 -3 -962 -2 -963 135 0
135 0 2 460 3 461 115 -111 c63 -62 238 -232 388 -378 151 -147 312 -304 360
-349 l85 -83 176 0 176 0 -161 158 c-154 150 -670 653 -821 800 l-72 70 84 77
c46 42 93 84 103 93 11 10 64 58 118 108 54 50 124 113 154 140 30 27 68 62
84 77 30 28 164 151 221 202 17 15 49 45 71 66 50 47 34 60 160 -139 51 -81
98 -152 103 -159 6 -7 11 -15 11 -18 0 -3 17 -32 38 -63 20 -32 42 -65 47 -75
6 -9 48 -76 94 -149 47 -73 127 -200 179 -283 52 -82 109 -172 127 -200 18
-27 70 -111 117 -185 227 -361 313 -498 332 -525 12 -16 21 -32 21 -35 1 -3
26 -43 56 -90 84 -129 101 -160 92 -160 -4 -1 -1358 -1 -3008 -1 -2042 0
-2999 3 -2998 10 3 12 64 113 73 121 3 3 30 46 60 95 30 50 58 92 62 93 4 2 8
8 8 13 0 5 23 43 50 85 28 41 50 78 50 81 0 3 11 21 25 39 14 18 25 36 25 40
0 3 16 29 35 55 19 27 35 51 35 53 0 3 23 39 50 80 28 42 50 80 50 86 0 5 5
10 10 10 6 0 10 7 10 15 0 8 5 15 10 15 6 0 10 4 10 9 0 5 35 64 78 130 42 67
86 137 97 155 41 68 170 271 175 276 3 3 12 17 20 31 14 24 560 889 642 1016
20 32 48 76 61 98 13 22 235 373 492 780 258 407 548 866 645 1020 220 350
223 355 232 355 4 0 20 -21 35 -47z"/>
<path d="M2110 3284 c-36 -8 -72 -16 -80 -17 -33 -6 -118 -43 -170 -73 -52
-30 -150 -119 -150 -135 0 -4 -6 -14 -13 -21 -13 -13 -37 -61 -55 -109 -20
-52 -27 -135 -21 -259 3 -73 57 -188 118 -250 34 -35 164 -120 184 -120 5 0
23 -6 40 -14 54 -23 134 -44 318 -80 158 -32 298 -76 307 -98 2 -4 10 -8 17
-8 23 0 93 -89 110 -140 10 -29 15 -76 14 -120 -3 -100 -40 -175 -115 -231
-30 -22 -63 -42 -72 -44 -9 -2 -36 -11 -59 -19 -59 -22 -103 -27 -218 -28
-147 -1 -249 15 -370 59 -38 14 -80 27 -92 30 -13 3 -23 10 -23 16 0 6 -3 8
-6 4 -4 -3 -37 9 -75 28 -38 19 -70 35 -72 35 -1 0 -2 -59 -2 -131 l0 -132 40
-14 c65 -24 208 -65 235 -69 14 -1 36 -5 50 -8 63 -14 79 -17 135 -23 159 -19
387 -5 510 29 22 6 45 12 51 14 23 4 141 67 174 92 151 115 216 300 184 527
-4 33 -7 63 -6 68 1 4 -3 7 -10 7 -6 0 -9 3 -5 6 3 4 -8 34 -25 67 -32 65
-132 171 -183 197 -16 8 -32 17 -35 20 -8 8 -59 30 -120 52 -71 25 -78 27
-230 57 -58 12 -116 24 -130 26 -14 3 -36 7 -50 10 -41 6 -162 46 -201 66 -94
48 -141 168 -115 296 32 158 202 244 468 237 68 -1 134 -5 148 -8 45 -9 64
-14 110 -27 25 -7 50 -13 55 -14 6 -2 57 -21 113 -43 61 -24 102 -35 103 -28
1 16 1 208 0 227 -1 9 -11 19 -23 22 -13 3 -57 15 -98 26 -41 11 -88 22 -105
24 -16 3 -41 8 -55 11 -63 14 -106 18 -265 21 -122 2 -188 -1 -235 -11z"/>
</g>
</svg>
